<?xml version="1.0" encoding="utf-8"?>
<!-- Generator: Adobe Illustrator 28.3.0, SVG Export Plug-In . SVG Version: 6.00 Build 0)  -->
<svg version="1.1" id="Layer_1" xmlns="http://www.w3.org/2000/svg" xmlns:xlink="http://www.w3.org/1999/xlink" x="0px" y="0px"
	 viewBox="0 0 30 30" style="enable-background:new 0 0 30 30;" xml:space="preserve">
<style type="text/css">
	.st0{fill:#231F20;}
</style>
<path class="st0" d="M16,5h-2l-9,9v0.6v0.8V16c0,0,6.5,6.5,9,9h2l9-9v-0.6v-0.8V14C25,14,18.5,7.5,16,5z M15,23.2L6.8,15
	C7.6,14.3,15,6.8,15,6.8l8.2,8.2C22.4,15.7,15,23.2,15,23.2z"/>
<polygon class="st0" points="18.4,13 17,11.6 15,13.6 13,11.6 11.6,13 13.6,15 11.6,17 13,18.4 15,16.4 17,18.4 18.4,17 16.4,15 "/>
</svg>
